# xmcd
#
# Track frame offsets: 
#        150
#        42962
#        116552
#        143562
#        168274
#        191102
#        214756
#        230242
#
# Disc length: 3412 seconds
#
# Revision: 0
# Processed by: cddbd v1.4PL0 Copyright (c) Steve Scherf et al.
# Submitted via: ExactAudioCopy v0.90b4
#
DISCID=710d5208
DTITLE=Van Morrison - Hungry For Your Love, disc2
DYEAR=1996
DGENRE=Celtic
TTITLE0=Lonely Avenue > Four O'Clock In The Morning > Down The Line > 
TTITLE0=Be Bop A Lula > You Give Me Nothing But The Blues
TTITLE1=I'll Take Care Of You > It's A Man's Man's Man's World > Don't
TTITLE1=Let Me Breakdown > It's Too Late To Stop Now
TTITLE2=Vanlose Stairway > Trans-Euro Train
TTITLE3=Saint Dominic's Preview
TTITLE4=That's Life
TTITLE5=Northern Muse (Solid Ground) > Auld Long Syne
TTITLE6=Brown Eyed Girl
TTITLE7=Have I Told You Lately
EXTD=
EXTT0=
EXTT1=
EXTT2=
EXTT3=
EXTT4=
EXTT5=
EXTT6=
EXTT7=
PLAYORDER=
